<svg id="Capa_1" enable-background="new 0 0 512 512" height="512" viewBox="0 0 512 512" width="512" xmlns="http://www.w3.org/2000/svg"><g><path d="m77.311 251.631h-30.036c.333 41.83 11.118 81.455 32.087 117.804 16.875 29.252 40.311 56.364 69.657 80.582 49.539 40.882 106.981 61.983 106.981 61.983l10.378-39.185-10.378-42.935c-25.821-7.766-176.747-76.174-178.689-178.249z" fill="#17799c"/><path d="m434.689 251.631c-1.923 104.359-152.69 170.864-178.689 178.249v82.12s55.555-20.024 105.723-60.463c29.721-23.958 53.455-51.036 70.543-80.481 21.218-36.561 32.129-76.731 32.458-119.425z" fill="#12617c"/><g><path d="m224.909 213.731-10.484 199.415 41.575-.143 10.378-88.402-10.378-110.871z" fill="#0b495d"/><path d="m284.942 213.729-28.942.001v199.273l39.442-.136z" fill="#07303d"/></g><g><path d="m234.492 51.514c0-11.86 9.648-21.508 21.508-21.508l5.754-16.933-5.754-13.073c-28.405 0-51.514 23.109-51.514 51.514 0 23.188 15.402 42.84 36.511 49.28v73.315h15.003l5.754-44.54-5.754-56.546c-11.86 0-21.508-9.649-21.508-21.509z" fill="#12617c"/><path d="m256 0v30.006c11.86 0 21.508 9.648 21.508 21.508s-9.648 21.509-21.508 21.509v101.086h15.003v-73.315c21.109-6.439 36.511-26.092 36.511-49.28 0-28.405-23.109-51.514-51.514-51.514z" fill="#0b495d"/></g><path d="m77.311 251.631h-29.905c5.276 22.799 13.946 44.725 25.971 65.571 16.875 29.252 40.311 56.364 69.657 80.582 49.539 40.882 112.966 61.983 112.966 61.983l10.378-25.263-10.378-23.508c-25.821-7.765-176.747-57.29-178.689-159.365z" fill="#12617c"/><path d="m434.689 251.631c-1.923 104.359-152.69 151.98-178.689 159.365v48.771s61.542-20.024 111.71-60.463c29.721-23.958 53.455-51.036 70.543-80.481 12.317-21.224 21.153-43.666 26.47-67.111 0-.027.001-.054.001-.081z" fill="#0b495d"/><g><path d="m162.393 168.302v29.383l93.607 10.418 5.754-27.391-5.754-12.41z" fill="#17799c"/></g><path d="m349.607 168.302h-93.607v39.801l93.607-10.418z" fill="#12617c"/><g><path d="m162.393 197.685v31.651h93.607l10.378-15.606-10.378-16.045z" fill="#12617c"/></g><path d="m256 197.685h93.607v31.651h-93.607z" fill="#0b495d"/></g></svg>